<svg width="69" height="76" viewBox="0 0 69 76" fill="none" xmlns="http://www.w3.org/2000/svg">
<ellipse cx="41.5" cy="69" rx="17.5" ry="7" fill="url(#paint0_radial)" fill-opacity="0.5"/>
<path d="M27.5808 47.7712C21.4517 37.1554 29.113 23.8856 41.3711 23.8856V23.8856C53.6293 23.8856 61.2906 37.1554 55.1615 47.7712L43.4927 67.9822C42.5498 69.6154 40.1925 69.6154 39.2495 67.9822L27.5808 47.7712Z" fill="#5663FF"/>
<path d="M43.1523 32.9463H36.1219C35.9035 32.9463 35.7247 33.125 35.7247 33.3435V37.9907C35.7247 38.2091 35.9035 38.3879 36.1219 38.3879H43.1523C43.3708 38.3879 43.5495 38.2091 43.5495 37.9907V33.3435C43.5495 33.125 43.3708 32.9463 43.1523 32.9463ZM42.7551 37.5935H36.5191V33.7407H42.7551V37.5935Z" fill="white"/>
<path d="M51.557 47.2056H44.9V40.8505H45.5474C46.1353 40.8505 46.6119 41.3311 46.6079 41.9189C46.6079 41.9229 46.6079 41.9229 46.6079 41.9269V43.0271C46.6079 44.1909 47.5493 45.1322 48.7131 45.1322C49.8769 45.1322 50.8182 44.1909 50.8182 43.0271V36.7435C50.8182 36.0921 50.5759 35.4645 50.1311 34.9839L47.025 31.4449L46.4292 31.9692L48.8362 34.7138C47.9664 34.8607 47.3785 35.6829 47.5255 36.5528C47.6526 37.3234 48.3199 37.8874 49.1023 37.8874C49.432 37.8834 49.7537 37.7841 50.0238 37.5935V43.0271C50.0238 43.75 49.436 44.3379 48.7131 44.3379C47.9902 44.3379 47.4023 43.75 47.4023 43.0271V41.9269C47.4063 40.8981 46.5762 40.06 45.5514 40.0561H45.5474H44.9V32.6563C44.9 31.7507 44.1692 31 43.2636 31H35.8836C34.978 31 34.2551 31.7547 34.2551 32.6563V47.2056H33.3972C33.1787 47.2056 33 47.3843 33 47.6028C33 47.8213 33.1787 48 33.3972 48H51.561C51.7794 48 51.9582 47.8213 51.9582 47.6028C51.9582 47.3843 51.7794 47.2056 51.557 47.2056ZM49.1023 37.089C48.6575 37.089 48.3 36.7276 48.3 36.2867C48.3 35.8458 48.6614 35.4843 49.1023 35.4843C49.5472 35.4843 49.9047 35.8458 49.9047 36.2867C49.9047 36.7276 49.5432 37.089 49.1023 37.089ZM44.1056 47.2056H35.0495V32.6563C35.0495 32.1876 35.415 31.7944 35.8836 31.7944H43.2636C43.7322 31.7944 44.1056 32.1916 44.1056 32.6563V47.2056Z" fill="white"/>
<defs>
<radialGradient id="paint0_radial" cx="0" cy="0" r="1" gradientUnits="userSpaceOnUse" gradientTransform="translate(41.5 69) rotate(90) scale(7 17.5)">
<stop stop-color="#383667"/>
<stop offset="1" stop-color="#383667" stop-opacity="0"/>
</radialGradient>
</defs>
</svg>
