<svg width="69" height="76" viewBox="0 0 69 76" fill="none" xmlns="http://www.w3.org/2000/svg">
<ellipse cx="41.5" cy="69" rx="17.5" ry="7" fill="url(#paint0_radial)" fill-opacity="0.5"/>
<path d="M27.5808 47.7712C21.4517 37.1554 29.113 23.8856 41.3711 23.8856V23.8856C53.6293 23.8856 61.2906 37.1554 55.1615 47.7712L43.4927 67.9822C42.5498 69.6154 40.1925 69.6154 39.2495 67.9822L27.5808 47.7712Z" fill="#FD610A"/>
<path d="M45.4556 39.1961L46.5192 39.1287C46.521 39.1286 46.5229 39.1285 46.5248 39.1283C47.2828 39.0644 47.9631 38.6673 48.3915 38.0387L49.2322 36.8051C49.9641 35.7312 50.2476 34.4342 50.0303 33.153C49.9877 32.9013 49.859 32.6695 49.6681 32.5003C49.4771 32.331 49.2316 32.231 48.9766 32.2188C47.6782 32.1567 46.4249 32.5938 45.4465 33.4491L44.3226 34.4317C43.7499 34.9323 43.4372 35.6553 43.4646 36.4155C43.4647 36.4173 43.4647 36.4193 43.4649 36.4212L43.5255 37.485C43.5491 37.8998 43.3971 38.309 43.1091 38.607L34.3287 47.6271C34.0937 47.8723 33.9723 48.2086 33.987 48.5741C34.0033 48.9765 34.188 49.3718 34.481 49.6316C34.7458 49.8662 35.1097 49.9999 35.4735 49.9999C35.5124 49.9999 35.5514 49.9984 35.5902 49.9952C35.9549 49.9661 36.2743 49.8053 36.4906 49.541L44.3911 39.7447C44.6531 39.4224 45.0412 39.2224 45.4556 39.1961V39.1961ZM43.9694 39.4033L36.0695 49.1988C35.9488 49.3463 35.7632 49.4371 35.5469 49.4544C35.2896 49.475 35.0259 49.3893 34.8411 49.2256C34.6563 49.0616 34.5397 48.81 34.5294 48.5522C34.5205 48.3355 34.5884 48.1403 34.719 48.0042L43.4987 38.9847C43.8923 38.5774 44.0995 38.0196 44.0674 37.4542L44.0068 36.3932C43.9862 35.7981 44.2313 35.2323 44.6798 34.8402L45.8037 33.8576C46.6759 33.0951 47.7937 32.7058 48.9508 32.7608C49.0825 32.7671 49.2093 32.8188 49.3081 32.9063C49.4068 32.9937 49.4732 33.1136 49.4953 33.2436C49.689 34.3858 49.4362 35.542 48.7838 36.4994L47.943 37.7331C47.6076 38.2253 47.0752 38.5364 46.4819 38.5874L45.4213 38.6545C44.8561 38.6904 44.3272 38.963 43.9694 39.4033Z" fill="white" stroke="white" stroke-width="0.2"/>
<path d="M49.6004 47.5586L43.7131 42.1964C43.6023 42.0954 43.4308 42.1034 43.3297 42.2142C43.2289 42.325 43.2369 42.4966 43.3477 42.5976L49.2334 47.9585C49.3734 48.0879 49.4529 48.2786 49.4571 48.4955C49.4622 48.7534 49.361 49.0116 49.1863 49.1863C49.0117 49.3608 48.754 49.4623 48.4955 49.4571C48.2787 49.4528 48.088 49.3734 47.9599 49.2349L42.7139 43.4754C42.613 43.3645 42.4413 43.3566 42.3305 43.4574C42.2198 43.5584 42.2118 43.73 42.3127 43.8408L47.56 49.6017C47.7906 49.8511 48.119 49.9925 48.4849 49.9997C48.4944 49.9998 48.5038 50 48.5133 50C48.9065 50 49.2997 49.8405 49.57 49.5701C49.847 49.293 50.0076 48.8874 49.9996 48.4848C49.9924 48.119 49.8511 47.7906 49.6004 47.5586V47.5586Z" fill="white" stroke="white" stroke-width="0.2"/>
<path d="M35.2742 39.1447C35.7233 39.5585 36.3068 39.7944 36.9172 39.809C36.9191 39.8091 36.921 39.8091 36.9228 39.8091L37.9885 39.8125C38.4039 39.8137 38.8031 39.9901 39.0833 40.2954L39.5528 40.8107C39.6064 40.8695 39.6797 40.8993 39.7534 40.8993C39.8186 40.8993 39.8841 40.876 39.936 40.8286C40.0469 40.7277 40.0549 40.556 39.954 40.4453L39.4839 39.9293C39.101 39.5119 38.5566 39.2716 37.9903 39.2697L36.9275 39.2664C36.4554 39.2544 36.0039 39.0736 35.6541 38.7569L32.5659 35.0858C32.5344 35.0483 32.5368 34.9939 32.5715 34.9592C32.5952 34.9353 32.6231 34.9319 32.6376 34.9319C32.6521 34.9319 32.68 34.9353 32.7039 34.9592L35.5149 37.7703C35.7927 38.0482 36.2449 38.0482 36.5228 37.7702L36.8531 37.44L37.4396 36.8533L37.7701 36.5228C38.048 36.2449 38.048 35.7928 37.7701 35.5149L34.9591 32.704C34.9227 32.6675 34.9227 32.608 34.9591 32.5715C34.9938 32.5368 35.0482 32.5345 35.0858 32.566L38.7569 35.6543C39.0737 36.004 39.2545 36.4556 39.2665 36.9276L39.2697 37.9904C39.2716 38.5567 39.512 39.1011 39.9299 39.4847L40.4329 39.9428C40.5438 40.0438 40.7153 40.0358 40.8163 39.925C40.9171 39.8141 40.9091 39.6426 40.7983 39.5416L40.2962 39.0842C39.99 38.8033 39.8138 38.4039 39.8124 37.9887L39.8091 36.923C39.8091 36.9211 39.8091 36.9192 39.8089 36.9172C39.7943 36.3068 39.5584 35.7233 39.1447 35.2742C39.1369 35.2658 39.1286 35.2578 39.1198 35.2503L35.435 32.1507C35.1804 31.9364 34.8108 31.9524 34.5755 32.1877C34.3273 32.4359 34.3273 32.8396 34.5755 33.0876L37.3865 35.8987C37.4528 35.965 37.4528 36.0729 37.3865 36.1392L37.2479 36.2775L34.115 33.1448C34.0091 33.0387 33.8373 33.0387 33.7314 33.1448C33.6255 33.2507 33.6255 33.4225 33.7314 33.5284L36.8643 36.6613L36.6613 36.8642L33.5284 33.7314C33.4225 33.6255 33.2507 33.6255 33.1447 33.7314C33.0387 33.8374 33.0387 34.0092 33.1447 34.1151L34.7111 35.6815L36.2775 37.248L36.1391 37.3865C36.0728 37.4528 35.965 37.4528 35.8987 37.3865L33.0876 34.5755C32.9674 34.4554 32.8076 34.3891 32.6376 34.3891C32.4676 34.3891 32.3078 34.4554 32.1877 34.5755C31.9523 34.8109 31.9365 35.1804 32.1507 35.4352L35.2504 39.1199C35.2577 39.1287 35.2657 39.137 35.2742 39.1447Z" fill="white" stroke="white" stroke-width="0.2"/>
<defs>
<radialGradient id="paint0_radial" cx="0" cy="0" r="1" gradientUnits="userSpaceOnUse" gradientTransform="translate(41.5 69) rotate(90) scale(7 17.5)">
<stop stop-color="#383667"/>
<stop offset="1" stop-color="#383667" stop-opacity="0"/>
</radialGradient>
</defs>
</svg>
