<svg width="69" height="76" viewBox="0 0 69 76" fill="none" xmlns="http://www.w3.org/2000/svg">
<ellipse cx="41.5" cy="69" rx="17.5" ry="7" fill="url(#paint0_radial)" fill-opacity="0.5"/>
<path d="M27.5808 47.7712C21.4517 37.1554 29.113 23.8856 41.3711 23.8856V23.8856C53.6293 23.8856 61.2906 37.1554 55.1615 47.7712L43.4927 67.9822C42.5498 69.6154 40.1925 69.6154 39.2495 67.9822L27.5808 47.7712Z" fill="#383667"/>
<path d="M51.3431 41.3869L50.0566 40.8301L48.9641 38.7041C48.6688 38.122 48.0698 37.7592 47.416 37.7634H45.5347V37.2319C45.5347 36.2702 44.7669 35.4856 43.8052 35.4856H34.812C33.8502 35.4856 33.0909 36.2744 33.0909 37.2319V45.3731C33.0825 45.9594 33.5507 46.4403 34.137 46.4487C34.1413 46.4487 34.1455 46.4487 34.1539 46.4487H34.3775C34.3775 46.4909 34.3733 46.5078 34.3733 46.5331C34.3691 47.7395 35.3435 48.7223 36.5499 48.7266C37.7563 48.7308 38.7391 47.7564 38.7433 46.55C38.7433 46.5415 38.7433 46.5373 38.7433 46.5289C38.7433 46.4993 38.7433 46.4867 38.7391 46.4445H46.0071C46.0071 46.4867 46.0071 46.5036 46.0071 46.5289C46.0029 47.7353 46.9773 48.7181 48.1837 48.7223C49.3901 48.7266 50.3729 47.7522 50.3772 46.5457C50.3772 46.5373 50.3772 46.5331 50.3772 46.5247C50.3772 46.4951 50.3772 46.4825 50.3772 46.4403H50.9213C51.5076 46.4403 51.9843 45.9636 51.9843 45.3773C51.9843 45.3731 51.9843 45.3689 51.9843 45.3604V42.3655C51.9927 41.9521 51.7396 41.5598 51.3431 41.3869ZM36.5625 47.8871C35.8201 47.8871 35.2211 47.2882 35.2211 46.5457C35.2211 45.8033 35.8201 45.2044 36.5625 45.2044C37.3049 45.2044 37.9039 45.8033 37.9039 46.5457C37.9039 47.2839 37.3007 47.8871 36.5625 47.8871ZM44.691 45.6135H38.5409C38.1865 44.8416 37.4104 44.3481 36.5625 44.3523C35.7104 44.3481 34.9385 44.8374 34.5842 45.6135H34.1539C34.0232 45.6135 33.9346 45.5123 33.9346 45.3815V43.2091H44.691V45.6135ZM44.691 37.2362V42.3655H33.9346V37.2362C33.9346 36.7426 34.3184 36.3335 34.812 36.3335H43.8052C44.2987 36.3377 44.6952 36.7426 44.691 37.2319V37.2362ZM45.5347 38.6113H47.416C47.7492 38.6071 48.0614 38.7885 48.2174 39.0879L49.0611 40.7204H45.5347V38.6113ZM48.1963 47.8871C47.4539 47.8871 46.855 47.2882 46.855 46.5457C46.855 45.8033 47.4539 45.2044 48.1963 45.2044C48.9388 45.2044 49.5377 45.8033 49.5377 46.5457C49.5377 47.2839 48.9388 47.8871 48.1963 47.8871ZM51.1449 45.3815C51.1449 45.5123 51.0563 45.6135 50.9255 45.6135H50.1747C49.6643 44.521 48.3651 44.0486 47.2726 44.559C46.8086 44.7741 46.4331 45.1495 46.218 45.6135H45.5347V41.564H49.6685L51.0099 42.1546C51.0943 42.1968 51.1491 42.2896 51.1449 42.3824V45.3815Z" fill="white"/>
<path d="M46.9772 35.6657C46.9772 35.6235 46.9914 35.5824 47.0177 35.5496L47.8407 34.5136L47.8188 34.484H47.1989C47.0954 34.484 47.0122 34.4003 47.0122 34.2973C47.0122 34.1938 47.096 34.1106 47.1989 34.1106H48.2344C48.3379 34.1106 48.4211 34.1944 48.4211 34.2973V34.3499C48.4211 34.392 48.4069 34.4331 48.3806 34.4665L47.5554 35.5025L47.5773 35.5321H48.224C48.3275 35.5321 48.4107 35.6159 48.4107 35.7188C48.4107 35.8223 48.3269 35.9055 48.224 35.9055H47.1639C47.0604 35.9055 46.9772 35.8217 46.9772 35.7188V35.6657Z" fill="white"/>
<path d="M48.2246 35.9876H47.1645C47.0161 35.9876 46.8956 35.8671 46.8956 35.7187V35.6656C46.8956 35.6048 46.9164 35.5457 46.9542 35.498L47.6945 34.5655H47.1995C47.0511 34.5655 46.9307 34.4451 46.9307 34.2967C46.9307 34.1483 47.0511 34.0278 47.1995 34.0278H48.235C48.3834 34.0278 48.5038 34.1483 48.5038 34.2967V34.3493C48.5038 34.41 48.483 34.4697 48.4452 34.5168L47.7027 35.4493H48.2251C48.3735 35.4493 48.494 35.5698 48.494 35.7182C48.494 35.8666 48.373 35.9876 48.2246 35.9876ZM47.199 34.1916C47.1409 34.1916 47.0944 34.2386 47.0944 34.2961C47.0944 34.3542 47.1415 34.4007 47.199 34.4007H47.8599L47.9448 34.5141L47.0823 35.5999C47.0676 35.6185 47.0594 35.6415 47.0594 35.665V35.7182C47.0594 35.7762 47.1064 35.8227 47.1639 35.8227H48.224C48.2821 35.8227 48.3286 35.7757 48.3286 35.7182C48.3286 35.6607 48.2815 35.6136 48.224 35.6136H47.5357L47.4509 35.5002L48.3155 34.4144C48.3302 34.3958 48.3385 34.3728 48.3385 34.3493V34.2967C48.3385 34.2386 48.2914 34.1921 48.2339 34.1921H47.199V34.1916Z" fill="white"/>
<path d="M44.3173 34.4529C44.3173 34.4025 44.3342 34.3533 44.366 34.3138L45.35 33.0752L45.3237 33.0402H44.5828C44.4596 33.0402 44.3594 32.94 44.3594 32.8168C44.3594 32.6936 44.4596 32.5934 44.5828 32.5934H45.8209C45.9441 32.5934 46.0443 32.6936 46.0443 32.8168V32.8798C46.0443 32.9301 46.0273 32.9794 45.9955 33.0188L45.0088 34.2574L45.0351 34.2925H45.8083C45.9315 34.2925 46.0317 34.3927 46.0317 34.5159C46.0317 34.6391 45.9315 34.7393 45.8083 34.7393H44.5407C44.4175 34.7393 44.3173 34.6391 44.3173 34.5159V34.4529V34.4529Z" fill="white"/>
<path d="M45.8081 34.8219H44.5405C44.3719 34.8219 44.235 34.685 44.235 34.5164V34.4534C44.235 34.3849 44.2585 34.317 44.3012 34.2634L45.2069 33.1228H44.5816C44.4129 33.1228 44.2761 32.9859 44.2761 32.8173C44.2761 32.6486 44.4129 32.5117 44.5816 32.5117H45.8196C45.9883 32.5117 46.1252 32.6486 46.1252 32.8173V32.8802C46.1252 32.9492 46.1016 33.0166 46.0584 33.0708L45.1505 34.2103H45.8081C45.9768 34.2103 46.1137 34.3472 46.1137 34.5158C46.1137 34.6845 45.9768 34.8219 45.8081 34.8219ZM44.5821 32.6749C44.5044 32.6749 44.4409 32.7384 44.4409 32.8162C44.4409 32.8939 44.5044 32.9574 44.5821 32.9574H45.3641L45.4533 33.0763L44.4305 34.3647C44.4108 34.3899 44.3998 34.4211 44.3998 34.4528V34.5158C44.3998 34.5936 44.4633 34.6571 44.5411 34.6571H45.8087C45.8864 34.6571 45.95 34.5936 45.95 34.5158C45.95 34.4381 45.8864 34.3745 45.8087 34.3745H44.9945L44.9052 34.2557L45.9313 32.9673C45.9511 32.9427 45.962 32.9109 45.962 32.8791V32.8162C45.962 32.7384 45.8985 32.6749 45.8207 32.6749H44.5821V32.6749Z" fill="white"/>
<path d="M41.3264 33.315C41.3264 33.2514 41.3477 33.1896 41.3871 33.1403L42.6252 31.5814L42.5918 31.537H41.6593C41.5038 31.537 41.3778 31.4111 41.3778 31.2556C41.3778 31.1001 41.5038 30.9741 41.6593 30.9741H43.2171C43.3726 30.9741 43.4985 31.1001 43.4985 31.2556V31.335C43.4985 31.3985 43.4772 31.4604 43.4372 31.5102L42.1959 33.0691L42.2293 33.1135H43.2023C43.3578 33.1135 43.4838 33.2394 43.4838 33.3949C43.4838 33.5504 43.3578 33.6764 43.2023 33.6764H41.6073C41.4517 33.6764 41.3258 33.5504 41.3258 33.3949V33.315H41.3264Z" fill="white"/>
<path d="M43.2024 33.7574H41.6074C41.4069 33.7574 41.2438 33.5942 41.2438 33.3938V33.3144C41.2438 33.2328 41.2717 33.1523 41.3226 33.0882L42.49 31.618H41.6588C41.4584 31.618 41.2952 31.4549 41.2952 31.2545C41.2952 31.054 41.459 30.892 41.6594 30.892H43.2172C43.4176 30.892 43.5808 31.0551 43.5808 31.2556V31.3349C43.5808 31.4171 43.5529 31.497 43.5019 31.5611L42.3312 33.0308H43.203C43.4034 33.0308 43.5665 33.1939 43.5665 33.3943C43.5665 33.5947 43.4028 33.7574 43.2024 33.7574ZM41.6594 31.0562C41.5499 31.0562 41.4601 31.1455 41.4601 31.2556C41.4601 31.3656 41.5493 31.4549 41.6594 31.4549H42.6329L42.7288 31.583L41.4513 33.1917C41.4234 33.2268 41.408 33.2706 41.408 33.3155V33.3949C41.408 33.5044 41.4973 33.5942 41.6074 33.5942H43.2024C43.3119 33.5942 43.4017 33.5049 43.4017 33.3949C43.4017 33.2848 43.3125 33.1956 43.2024 33.1956H42.1878L42.092 33.0674L43.3727 31.4592C43.4006 31.4242 43.416 31.3798 43.416 31.3349V31.2556C43.416 31.146 43.3267 31.0562 43.2166 31.0562H41.6594V31.0562Z" fill="white"/>
<defs>
<radialGradient id="paint0_radial" cx="0" cy="0" r="1" gradientUnits="userSpaceOnUse" gradientTransform="translate(41.5 69) rotate(90) scale(7 17.5)">
<stop stop-color="#383667"/>
<stop offset="1" stop-color="#383667" stop-opacity="0"/>
</radialGradient>
</defs>
</svg>
